<svg width="20" height="20" viewBox="0 0 20 20" fill="none" xmlns="http://www.w3.org/2000/svg">
<path d="M10.0002 18C10.8702 18 11.7102 17.86 12.4942 17.604C12.107 17.1005 11.7801 16.5535 11.5202 15.974C11.0242 16.675 10.4862 17 10.0002 17C9.34319 17 8.59319 16.41 7.97819 15.092C7.74411 14.5794 7.55733 14.0466 7.42019 13.5H11.0042C11.0162 13.158 11.0632 12.823 11.1412 12.5H7.20619C7.06723 11.674 6.99832 10.8377 7.00019 10C7.00019 9.117 7.07319 8.275 7.20619 7.5H12.7942C12.9142 8.204 12.9862 8.963 12.9982 9.758C13.3002 9.552 13.6292 9.383 13.9842 9.258C13.9584 8.66914 13.8993 8.0822 13.8072 7.5H16.5402C16.7502 8.049 16.8932 8.631 16.9592 9.236C17.3332 9.363 17.6802 9.538 17.9962 9.753C17.9477 8.18201 17.4374 6.66012 16.5292 5.37734C15.621 4.09455 14.3551 3.10772 12.8894 2.54003C11.4238 1.97235 9.82341 1.84898 8.28808 2.18532C6.75275 2.52165 5.3505 3.3028 4.25642 4.43123C3.16234 5.55965 2.42489 6.98536 2.13615 8.53036C1.84742 10.0753 2.02018 11.6712 2.63288 13.1186C3.24557 14.566 4.27105 15.8008 5.58129 16.669C6.89152 17.5371 8.42845 18 10.0002 18ZM10.0002 3C10.6572 3 11.4072 3.59 12.0222 4.908C12.2392 5.374 12.4282 5.91 12.5812 6.5H7.41919C7.57219 5.91 7.76119 5.374 7.97919 4.908C8.59219 3.59 9.34219 3 10.0002 3ZM7.07219 4.485C6.7769 5.13182 6.54806 5.80695 6.38919 6.5H3.93619C4.78043 5.04087 6.12142 3.93415 7.71419 3.382C7.47319 3.712 7.25819 4.086 7.07219 4.485ZM6.19219 7.5C6.06277 8.32702 5.99857 9.16292 6.00019 10C6.00019 10.87 6.06719 11.712 6.19319 12.5H3.46019C3.15522 11.7018 2.9993 10.8545 3.00019 10C3.00019 9.12 3.16319 8.276 3.46019 7.5H6.19319H6.19219ZM6.38919 13.5C6.56519 14.243 6.79619 14.922 7.07219 15.515C7.25819 15.914 7.47319 16.288 7.71419 16.618C6.12142 16.0659 4.78043 14.9591 3.93619 13.5H6.39019H6.38919ZM12.2862 3.382C13.879 3.93407 15.22 5.04081 16.0642 6.5H13.6102C13.4513 5.80695 13.2225 5.13182 12.9272 4.485C12.7491 4.09756 12.5341 3.72819 12.2852 3.382H12.2862ZM19.0002 13.682C19.0002 11.649 17.5352 10.001 15.5012 10.001C13.4682 10.001 12.0002 11.649 12.0002 13.682C12.0002 15.206 12.9822 17.212 15.2562 18.918C15.4012 19.028 15.6012 19.028 15.7462 18.918C18.0222 17.212 19.0002 15.206 19.0002 13.682ZM17.0002 13.5C17.0002 13.8978 16.8422 14.2794 16.5608 14.5607C16.2795 14.842 15.898 15 15.5002 15C15.1024 15 14.7208 14.842 14.4395 14.5607C14.1582 14.2794 14.0002 13.8978 14.0002 13.5C14.0002 13.1022 14.1582 12.7206 14.4395 12.4393C14.7208 12.158 15.1024 12 15.5002 12C15.898 12 16.2795 12.158 16.5608 12.4393C16.8422 12.7206 17.0002 13.1022 17.0002 13.5Z" fill="#37A000"/>
</svg>
